<svg xmlns="http://www.w3.org/2000/svg" viewBox="0 0 1920 1200" preserveAspectRatio="xMidYMid slice">
<defs>
  <linearGradient id="bg" x1="0" y1="0" x2="1" y2="1"><stop stop-color="#07101a"/><stop offset=".5" stop-color="#0b1621"/><stop offset="1" stop-color="#0a1219"/></linearGradient>
  <radialGradient id="blue" cx="76%" cy="16%" r="58%"><stop stop-color="#46637f" stop-opacity=".20"/><stop offset="1" stop-color="#46637f" stop-opacity="0"/></radialGradient>
  <radialGradient id="pearl" cx="18%" cy="72%" r="44%"><stop stop-color="#dce5ed" stop-opacity=".08"/><stop offset="1" stop-color="#dce5ed" stop-opacity="0"/></radialGradient>
  <filter id="blur"><feGaussianBlur stdDeviation="32"/></filter>
  <filter id="grain"><feTurbulence type="fractalNoise" baseFrequency=".85" numOctaves="2" seed="21"/><feColorMatrix values="1 0 0 0 0 0 1 0 0 0 0 0 1 0 0 0 0 0 .05 0"/></filter>
</defs>
<rect width="1920" height="1200" fill="url(#bg)"/>
<rect width="1920" height="1200" fill="url(#blue)"/>
<rect width="1920" height="1200" fill="url(#pearl)"/>
<path d="M0 880c250-118 468-126 654-18 170 100 332 112 518 8 202-112 444-102 748 42v288H0Z" fill="#7b8fa0" opacity=".065"/>
<path d="M0 954c282-118 510-102 682 48 152 132 320 128 516 16 196-112 426-110 722 30v152H0Z" fill="#dce5ed" opacity=".035"/>
<ellipse cx="260" cy="842" rx="420" ry="160" fill="#dce5ed" opacity=".055" filter="url(#blur)"/>
<ellipse cx="1640" cy="250" rx="410" ry="170" fill="#5f8fc9" opacity=".065" filter="url(#blur)"/>
<path d="M-80 314C240 146 532 148 770 326s470 178 716 12c188-128 366-138 554-34" fill="none" stroke="#91abc1" stroke-opacity=".11" stroke-width="1.5"/>
<path d="M-54 358C262 198 548 202 786 366s474 160 716 4c190-122 356-126 514-42" fill="none" stroke="#f4f6f8" stroke-opacity=".065" stroke-width="1"/>
<rect width="1920" height="1200" filter="url(#grain)" opacity=".5"/>
</svg>